<?xml version="1.0" encoding="UTF-8"?><svg version="1.1" xmlns="http://www.w3.org/2000/svg" style="display: block;" viewBox="0 0 2048 2048" width="1024" height="1024" preserveAspectRatio="xMidYMid meet">
<path transform="translate(0,0)" fill="rgb(10,151,216)" d="M 1190.32 592.331 C 1191.03 610.763 1193.13 629.187 1193.79 647.602 C 1195.94 708.446 1187.13 766.013 1168.95 823.945 C 1162.99 842.928 1155.51 861.714 1149.25 880.746 C 1139.39 911.058 1132.33 942.211 1128.16 973.813 C 1120.98 1028.34 1121.53 1100.94 1119.67 1157.38 C 1117.63 1233.76 1110.33 1309.91 1097.82 1385.28 C 1093.51 1411.25 1089.37 1438.41 1078.48 1462.59 C 1070.16 1481.05 1044.08 1486.78 1042.94 1460.25 C 1042.35 1446.51 1042.64 1432.9 1042.65 1419.17 C 1042.62 1397.1 1042.36 1375.02 1041.86 1352.96 C 1040.17 1281.28 1034.16 1183.05 1023.64 1112.01 C 1017.54 1149.68 1013.6 1209.01 1011.55 1246.47 C 1008.78 1289.59 1006.89 1332.76 1005.9 1375.95 C 1005.54 1392.48 1009.51 1466.81 999.915 1474.45 C 970.495 1497.89 956.99 1420.67 953.64 1403.75 C 936.365 1316.46 930.765 1227.03 928.111 1138.22 C 925.633 1056.75 929.132 975.491 903.661 897.026 C 896.636 875.385 888.669 854.008 881.621 832.387 C 861.048 770.464 851.729 705.357 854.104 640.149 C 854.746 625.732 856.791 609.075 858.327 594.569 C 864.271 622.79 876.541 658.961 891.247 683.95 C 895.882 692.459 906.709 712.319 913.847 718.586 C 914.103 719.37 914.366 720.307 914.836 720.973 C 936.359 751.501 969.384 776.198 1005.96 783.642 C 1036.9 789.941 1063.72 780.655 1088.79 764.226 C 1142.14 729.253 1178.25 653.829 1190.32 592.331 z"/>
<path transform="translate(0,0)" fill="rgb(251,190,4)" d="M 665.153 655.654 C 666.974 657.552 672.892 675.226 674.255 678.85 C 692.183 726.539 730.147 779.507 782.71 791.019 C 807.961 796.549 830.464 787.124 850.9 773.396 C 855.899 800.813 863.982 837.759 874.534 863.099 C 889.743 899.619 883.588 899.062 879.69 935.125 C 876.741 962.06 875.181 989.13 875.016 1016.23 C 875.3 1132.26 889.329 1247.85 916.807 1360.58 C 922.154 1383.45 929.992 1419.16 937.448 1440.71 C 939.37 1447.17 942.287 1455.73 938.401 1462 C 933.996 1469.1 925.11 1463.28 921.642 1458.4 C 906.717 1437.42 895.696 1412.86 885.056 1389.48 C 843.209 1297.77 813.291 1201.1 786.792 1104 C 777.295 1069.21 769.761 1034.19 760.58 999.486 C 751.864 967.435 742.278 935.626 731.834 904.095 C 714.597 852.185 686.423 816.152 673.059 763.414 C 663.08 724.029 662.482 695.484 665.153 655.654 z"/>
<path transform="translate(0,0)" fill="rgb(100,177,48)" d="M 1381.53 654.786 C 1383.16 657.081 1382.75 655.932 1382.94 658.955 C 1385.16 694.599 1384.07 726.241 1375.38 761.06 C 1365.81 799.378 1348.92 828.368 1331.31 862.888 C 1325.86 873.589 1319.96 890.861 1316.03 902.452 C 1291.48 974.845 1276.12 1049.24 1256.03 1123 C 1230.63 1216.18 1201.76 1307.88 1160.67 1395.52 C 1150.45 1416.83 1141.64 1440.09 1126.83 1458.72 C 1123.43 1462.99 1113.84 1469.63 1109.2 1462.82 C 1106.14 1458.33 1108.49 1449.85 1109.65 1444.76 C 1149.92 1306.53 1172.39 1166.52 1172.94 1022.25 C 1173.1 980.298 1171.27 936.819 1161.34 895.904 C 1177.43 849.002 1187.51 824.558 1196.6 774.109 C 1285.39 833.072 1360.66 733 1381.53 654.786 z"/>
<path transform="translate(0,0)" fill="rgb(6,113,183)" d="M 1466.22 568.685 C 1467.08 571.847 1467.12 579.719 1467.12 583.416 C 1466.88 838.678 1397.5 1100.64 1266.55 1320.13 C 1253.87 1341.37 1176.04 1460.46 1153.67 1460.7 L 1153.3 1458.72 C 1159.5 1437.39 1169.09 1421.24 1179.16 1401.64 C 1186.37 1387.53 1193.34 1373.3 1200.07 1358.96 C 1276.88 1198.41 1323.15 1041.33 1345.17 867.087 C 1345.78 862.28 1361.79 836.292 1365.46 828.629 C 1384.21 789.447 1399.02 748.883 1395.7 704.597 C 1394.68 688.016 1392.26 677.136 1390.41 661.564 C 1427.77 636.005 1445.87 607.277 1466.22 568.685 z"/>
<path transform="translate(0,0)" fill="rgb(159,38,141)" d="M 580.934 569.657 C 583.476 572.723 590.498 588.735 593.644 593.892 C 610.443 621.715 632.474 646.02 658.518 665.462 C 647.099 729.211 655.518 771.745 682.381 830.247 C 687.167 842.699 701.709 861.561 703.378 874.545 C 708.534 914.656 715.054 953.39 723.461 992.97 C 744.166 1089.94 773.679 1184.81 811.633 1276.42 C 824.678 1308.71 841.296 1341.9 855.538 1373.71 C 865.568 1396.12 891.768 1436.78 895.679 1458.77 C 895.634 1459.31 895.722 1458.88 894.998 1460.5 C 877.256 1457.73 815.232 1370.82 802.652 1351.61 C 693.035 1184.23 623.147 980.578 594.631 783.157 C 588.095 738.195 583.976 692.915 582.29 647.511 C 581.471 622.971 582.794 592.946 580.934 569.657 z"/>
<path transform="translate(0,0)" fill="rgb(159,38,141)" d="M 1012.44 331.578 C 1060.6 325.216 1104.85 358.953 1111.46 407.074 C 1118.08 455.196 1084.57 499.621 1036.49 506.49 C 988.042 513.41 943.212 479.602 936.547 431.12 C 929.882 382.639 963.926 337.987 1012.44 331.578 z"/>
<path transform="translate(0,0)" fill="rgb(0,0,0)" d="M 502.637 1595.59 C 512.825 1595.87 524.729 1595.15 535.226 1595.13 L 550.5 1633.03 C 564.338 1666.22 577.888 1699.54 591.148 1732.97 C 580.124 1733.56 567.807 1733.3 556.677 1733.3 C 552.364 1725.55 548.666 1715.38 545.379 1706.97 L 491.759 1707.12 C 489.598 1714.75 484.841 1725.72 481.799 1733.34 C 463.296 1734.63 429.461 1733.89 410.388 1733.36 C 406.954 1728.02 398.581 1718.74 394.365 1713.34 C 386.055 1702.69 377.811 1691.63 369.197 1681.28 L 357.723 1694.36 C 356.741 1704.78 357.561 1722.02 357.436 1733.29 C 346.756 1733.74 334.065 1733.36 323.215 1733.28 C 322.074 1689.17 322.884 1639.97 323.115 1595.55 C 332.681 1595.87 340.764 1595.74 350.272 1595.46 L 356.046 1595.53 C 358.267 1598.17 357.273 1647.4 357.539 1655.02 C 374.411 1635.1 392.755 1615.24 410.337 1595.92 C 422.759 1595.7 435.183 1595.57 447.607 1595.54 C 430.412 1616.89 410.852 1638.54 392.988 1659.65 C 406.932 1679.36 432.649 1711.8 448.344 1730.18 C 466.134 1685.19 484.232 1640.32 502.637 1595.59 z M 502.087 1679.77 L 519.373 1679.85 L 535.411 1679.81 C 529.289 1665.04 523.723 1648.84 518.249 1633.72 C 513.117 1648.06 506.394 1665.42 502.087 1679.77 z"/>
<path transform="translate(0,0)" fill="rgb(10,151,216)" d="M 1009.68 586.277 C 1054.12 578.448 1096.43 608.339 1103.89 652.843 C 1111.36 697.347 1081.12 739.407 1036.56 746.509 C 992.507 753.529 951.035 723.716 943.655 679.723 C 936.275 635.73 965.748 594.016 1009.68 586.277 z"/>
<path transform="translate(0,0)" fill="rgb(0,0,0)" d="M 1251.66 1591.36 C 1292.09 1584.62 1330.32 1611.97 1336.99 1652.41 C 1343.67 1692.85 1316.26 1731.03 1275.81 1737.64 C 1235.45 1744.23 1197.38 1716.9 1190.71 1676.56 C 1184.05 1636.21 1211.32 1598.09 1251.66 1591.36 z M 1271.15 1705.11 C 1293.59 1701.02 1308.47 1679.53 1304.42 1657.09 C 1300.37 1634.65 1278.91 1619.73 1256.46 1623.74 C 1233.95 1627.76 1218.98 1649.28 1223.04 1671.79 C 1227.1 1694.29 1248.66 1709.22 1271.15 1705.11 z"/>
<path transform="translate(0,0)" fill="rgb(0,0,0)" d="M 1360.12 1595.29 C 1395.95 1598.99 1468.73 1580.83 1477.75 1633.72 C 1483.19 1665.62 1462.15 1686.08 1431.23 1690.83 C 1419.59 1691.63 1406.31 1690.81 1393.96 1691.47 C 1393.96 1705.38 1394.07 1719.29 1394.3 1733.2 C 1384.4 1733.9 1369.77 1733.78 1359.91 1733.28 C 1358.63 1689.62 1359.06 1638.71 1360.12 1595.29 z M 1394.27 1663.02 C 1403.31 1663.07 1423.94 1663.73 1431.96 1661.71 C 1437.88 1657.89 1441.99 1654.33 1443.11 1647.14 C 1447.25 1620.6 1418.3 1623.31 1402.69 1623.42 C 1399.75 1623.55 1396.78 1623.21 1394.68 1624.96 C 1393.61 1637.61 1395.04 1650.38 1394.27 1663.02 z"/>
<path transform="translate(0,0)" fill="rgb(100,177,48)" d="M 1239.96 456.574 C 1273.67 455.395 1301.96 481.719 1303.22 515.419 C 1304.47 549.118 1278.21 577.472 1244.51 578.8 C 1210.71 580.131 1182.25 553.769 1180.99 519.965 C 1179.73 486.161 1206.16 457.757 1239.96 456.574 z"/>
<path transform="translate(0,0)" fill="rgb(251,190,4)" d="M 795.382 457.707 C 828.751 452.244 860.2 474.958 865.505 508.353 C 870.81 541.748 847.948 573.09 814.528 578.237 C 781.331 583.35 750.244 560.673 744.974 527.5 C 739.705 494.328 762.234 463.134 795.382 457.707 z"/>
<path transform="translate(0,0)" fill="rgb(0,0,0)" d="M 927.721 1595.57 C 964.261 1597.91 1036.23 1581.92 1045.18 1633.57 C 1050.61 1664.96 1029.8 1685.38 999.644 1690.71 C 993.234 1691.63 968.722 1691.26 961.252 1691.3 C 960.945 1705.15 961.105 1719.64 961.05 1733.54 L 927.181 1733.27 L 927.721 1595.57 z M 961.186 1663.83 C 979.163 1662.04 991.671 1666.56 1005.74 1656.89 C 1012.36 1647.07 1015.3 1635.11 1003.51 1628.13 C 990.114 1620.2 975.089 1624.95 961.171 1623.26 L 961.186 1663.83 z"/>
<path transform="translate(0,0)" fill="rgb(100,177,48)" d="M 1247.81 633.408 C 1256.77 633.112 1266.48 635.269 1274.68 638.875 C 1289.97 645.464 1301.9 658.019 1307.7 673.626 C 1320.93 709.245 1303.24 744.036 1267.44 756.31 C 1243.08 762.203 1222.45 757.162 1204.77 739.342 C 1205.37 725.542 1207.46 711.023 1207.99 696.806 C 1208.58 680.839 1208.19 666.31 1207.77 650.295 C 1221.56 640.037 1230.95 635.465 1247.81 633.408 z"/>
<path transform="translate(0,0)" fill="rgb(251,190,4)" d="M 789.257 634.185 C 804.648 632.527 819.636 636.039 832.871 644.64 C 834.832 645.921 839.929 651.012 839.825 653.575 C 838.592 683.931 839.284 709.56 843.307 739.945 C 828.833 755.711 811.243 758.019 791.208 758.159 C 780.318 756.348 772.691 754.308 763.299 748.051 C 749.614 739.006 740.219 724.761 737.293 708.619 C 734.002 691.797 737.582 674.357 747.234 660.191 C 757.459 645.354 771.865 637.478 789.257 634.185 z"/>
<path transform="translate(0,0)" fill="rgb(0,0,0)" d="M 1065.75 1595.12 C 1099.87 1596.88 1136.83 1595.36 1171.24 1595.73 C 1171.29 1604.97 1171.27 1614.21 1171.17 1623.44 L 1099.62 1623.71 L 1099.36 1649.88 C 1119.97 1649.42 1144.52 1649.04 1164.99 1649.85 C 1164.33 1660.75 1164.21 1667.01 1164.91 1677.93 L 1116.25 1677.85 L 1099.25 1677.89 L 1099.16 1705.05 C 1123.64 1705.3 1148.57 1705.06 1173.09 1705.05 C 1173.18 1714.37 1173.09 1723.84 1173.09 1733.18 C 1162.86 1734.36 1144.98 1733.8 1134.04 1733.75 C 1111.05 1733.58 1088.05 1733.55 1065.06 1733.64 L 1064.89 1640.11 C 1064.87 1631.7 1064.28 1601.77 1065.75 1595.12 z"/>
<path transform="translate(0,0)" fill="rgb(0,0,0)" d="M 1617.88 1595.55 C 1651.24 1596.79 1688.91 1595.66 1722.72 1595.94 C 1722.21 1604.79 1722.66 1614.66 1722.86 1623.61 C 1699 1624.14 1675.15 1623.29 1651.32 1623.96 L 1651.43 1649.73 C 1669.73 1649.01 1697.28 1649.08 1715.49 1649.79 C 1715.61 1659.09 1715.55 1668.39 1715.31 1677.68 C 1697.77 1678.36 1677.49 1677.89 1659.75 1677.9 C 1658.18 1677.9 1654.08 1677.73 1653.31 1678.72 C 1649.67 1683.43 1651.67 1699.25 1651.97 1705.18 L 1724.78 1705.05 C 1724.48 1714.56 1724.5 1724.07 1724.81 1733.58 C 1690.08 1734.62 1651.99 1732.19 1617.84 1733.84 L 1617.88 1595.55 z"/>
<path transform="translate(0,0)" fill="rgb(0,0,0)" d="M 726.086 1595.04 C 738.125 1595.87 748.279 1595.74 760.34 1595.6 L 760.232 1600.5 C 759.944 1615.69 759.723 1631.15 759.935 1646.46 C 760.23 1667.81 755.705 1706.94 787.068 1706.78 C 819.01 1706.61 814.153 1667.8 814.056 1645.66 L 814.083 1595.41 C 826.023 1595.67 835.976 1595.84 847.921 1595.24 L 847.917 1623.5 C 847.934 1652.74 853.716 1695.35 833.216 1718.33 C 811.749 1742.38 765.302 1741.91 742.507 1719.77 C 735.894 1713.39 731.137 1705.33 728.744 1696.46 C 724.421 1680.98 726.461 1615.42 726.086 1595.04 z"/>
<path transform="translate(0,0)" fill="rgb(6,113,183)" d="M 1409.48 471.707 C 1439.25 468.421 1466.05 489.871 1469.37 519.635 C 1472.69 549.398 1451.27 576.223 1421.51 579.573 C 1391.7 582.928 1364.83 561.468 1361.5 531.658 C 1358.18 501.849 1379.67 474.997 1409.48 471.707 z"/>
<path transform="translate(0,0)" fill="rgb(159,38,141)" d="M 625.64 472.097 C 655.203 468.35 682.22 489.246 686.025 518.802 C 689.83 548.358 668.987 575.416 639.438 579.279 C 609.807 583.153 582.658 562.24 578.843 532.601 C 575.027 502.962 595.994 475.854 625.64 472.097 z"/>
<path transform="translate(0,0)" fill="rgb(0,0,0)" d="M 706.715 1595.58 L 707.446 1595.96 C 708.63 1599.35 708.081 1618.43 708.052 1623.28 C 686.829 1624.25 661.157 1623.7 639.622 1623.77 C 639.244 1634.05 639.34 1644.72 639.312 1655.03 L 701.053 1655.04 L 701.016 1683.06 C 680.846 1683.68 659.542 1683.19 639.131 1683.55 L 639.07 1702.11 L 639.065 1733.65 L 605.004 1733.78 C 604.606 1687.71 604.697 1641.63 605.277 1595.55 C 636.142 1597.03 675.592 1595.79 706.715 1595.58 z"/>
<path transform="translate(0,0)" fill="rgb(0,0,0)" d="M 1498.05 1594.95 C 1506.59 1596.3 1522.75 1595.58 1531.91 1595.32 L 1532.06 1705.24 C 1554.17 1706.29 1578.63 1705.75 1600.77 1705.14 C 1599.82 1714.5 1600.26 1724.2 1600.77 1733.57 L 1497.8 1733.59 C 1499.48 1690.44 1497.35 1639.66 1498.05 1594.95 z"/>
<path transform="translate(0,0)" fill="rgb(100,177,48)" d="M 1116.34 616.603 C 1117.99 618.152 1121.65 632.587 1122.64 636.18 C 1127.54 653.899 1133.91 668.14 1142.1 684.386 C 1136.56 693.075 1130.18 701.912 1124.27 710.4 C 1120.73 715.376 1117.19 719.908 1113.43 724.711 C 1109.67 684.821 1111.07 655.959 1116.34 616.603 z"/>
<path transform="translate(0,0)" fill="rgb(251,190,4)" d="M 930.384 614.816 C 931.367 623.104 934.341 644.561 934.741 651.684 C 935.27 661.118 936.75 715.669 933.247 721.536 C 930.8 719.813 930.31 719.408 928.183 717.303 C 922.831 710.606 916.064 700.569 910.689 694.685 C 908.682 691.151 907.102 688.329 904.795 684.996 C 919.597 659.201 923.084 643.044 930.384 614.816 z"/>
</svg>